<svg xmlns="http://www.w3.org/2000/svg" viewBox="0 0 100 100"><rect width="100" height="100" rx="22" fill="#0b0b0c"/><rect x="1.5" y="1.5" width="97" height="97" rx="20.5" fill="none" stroke="#fff" stroke-opacity="0.12" stroke-width="1.5"/><svg x="12" y="12" width="76" height="76" viewBox="230 10 300 240">
  <path fill="#f2f2f0" fill-rule="evenodd" d="M 427 3.509 C 423.975 4.248, 417.512 6.010, 412.638 7.426 C 405.961 9.366, 401.501 10, 394.545 10 C 384.732 10, 381.177 10.909, 367 17.040 C 362.875 18.824, 350.464 23.775, 339.421 28.043 C 328.377 32.311, 316.002 37.473, 311.921 39.514 C 299.357 45.797, 288.008 53.022, 287.885 54.817 C 287.821 55.743, 287.709 57.145, 287.635 57.934 C 287.556 58.776, 283.579 60.864, 278 62.994 C 262.157 69.042, 254 73.811, 254 77.026 C 254 79.344, 259.425 82.567, 270.940 87.090 C 287.103 93.439, 292.487 98.922, 292.442 108.992 C 292.424 112.994, 291.658 116.004, 289.638 120 C 288.109 123.025, 286.488 125.879, 286.036 126.343 C 284.538 127.879, 281.274 125.128, 275.513 117.475 C 269.345 109.278, 264.520 105.499, 258.936 104.491 C 254.105 103.618, 251.785 106.036, 255.175 108.410 C 256.423 109.284, 257.982 110, 258.638 110 C 259.294 110, 263.387 113.262, 267.733 117.250 C 272.079 121.237, 277.292 125.390, 279.317 126.477 C 281.343 127.565, 283 128.781, 283 129.179 C 283 130.318, 274.859 135.560, 271.101 136.841 C 266.173 138.521, 255.508 138.262, 249.325 136.313 C 245.307 135.047, 243.688 134.912, 242.829 135.771 C 241.970 136.630, 242.032 137.334, 243.078 138.594 C 247.222 143.587, 267.420 148.143, 285.500 148.163 C 299.979 148.180, 309.546 146.246, 320 141.191 C 331.182 135.784, 345.550 121.038, 359.902 100.238 C 361.140 98.444, 362.562 97.229, 363.061 97.538 C 365.056 98.770, 381.628 98.092, 385.763 96.609 L 390.025 95.080 392.371 98.795 C 396.190 104.845, 402.617 109.901, 412.662 114.757 C 423.429 119.963, 424.693 119.711, 425.706 112.159 C 426.406 106.933, 424.268 103.433, 419.784 102.465 C 411.991 100.782, 405.706 95.616, 403.093 88.746 C 401.758 85.232, 401.904 85.242, 413.970 89.441 C 434.306 96.520, 446.046 102.730, 455.830 111.584 C 464.102 119.070, 465.523 121.866, 464.043 127.743 C 463.420 130.218, 463.175 132.508, 463.499 132.832 C 464.307 133.641, 477.098 130.326, 485 127.260 C 497.712 122.328, 498.021 120.019, 487.307 110.013 C 475.167 98.676, 453.471 84.209, 433.869 74.381 C 428.893 71.886, 424.975 69.696, 425.161 69.515 C 425.705 68.986, 452.906 73.688, 464.697 76.349 C 475.012 78.677, 521.668 91.783, 527.397 93.961 C 528.900 94.532, 531.936 95, 534.142 95 C 539.214 95, 544 90.726, 544 86.196 C 544 83.430, 543.431 82.993, 535.250 79.477 C 504.689 66.345, 455.447 54.611, 424.846 53.171 L 409.500 52.449 426.500 46.800 C 435.850 43.693, 450.846 39.084, 459.825 36.557 C 476.339 31.911, 484 28.846, 484 26.883 C 484 24.673, 447.046 27.876, 423.665 32.112 C 407.926 34.964, 402.504 35.316, 408.111 33.121 C 409.425 32.607, 418.150 28.949, 427.500 24.993 C 436.850 21.037, 446.156 17.201, 448.180 16.469 C 454.757 14.090, 470 6.731, 470 5.935 C 470 5.508, 466.962 4.870, 463.250 4.517 C 459.538 4.164, 453.205 3.453, 449.178 2.937 C 439.610 1.713, 433.739 1.864, 427 3.509  M 318.145 48.070 C 307.410 52.370, 303.427 64.191, 311.568 67.593 C 316.218 69.536, 319.631 69.357, 324.698 66.904 C 327.585 65.506, 329.857 63.394, 331.514 60.566 C 334.710 55.112, 334.644 53.490, 331.077 49.923 C 327.969 46.815, 323.041 46.109, 318.145 48.070  M 313.174 55.314 C 309.219 59.525, 311.081 65, 316.469 65 C 317.742 65, 317.858 64.604, 317.035 63.066 C 315.499 60.195, 315.767 58.233, 318 56 C 320.564 53.436, 320.516 53, 317.674 53 C 316.395 53, 314.370 54.042, 313.174 55.314  M 111.836 129.919 C 102.335 132.957, 94.383 139.157, 92.050 145.344 C 90.604 149.180, 93.835 154.977, 99.056 157.911 C 108.081 162.983, 127.626 166.675, 152.500 168.007 C 162.400 168.537, 179.130 169.432, 189.678 169.995 C 200.226 170.559, 212.826 171.702, 217.678 172.534 C 228.852 174.451, 243.232 177.948, 244.377 179.028 C 245.329 179.925, 241.650 181.068, 230 183.494 C 225.875 184.353, 216.875 187.033, 210 189.449 C 203.125 191.865, 191.875 195.815, 185 198.226 C 169.963 203.500, 160.722 206.155, 147.767 208.921 C 136.160 211.400, 130.747 211.528, 124.883 209.459 C 118.193 207.098, 113.548 207.478, 100.530 211.448 C 86.238 215.806, 81.745 218.721, 82.194 223.340 C 82.440 225.875, 83.032 226.590, 85.222 226.996 C 87.354 227.391, 87.737 227.826, 86.988 229 C 85.340 231.582, 85.907 234.014, 88.375 234.953 C 90.279 235.676, 90.649 236.387, 90.238 238.534 C 89.683 241.441, 91.140 242.959, 94.509 242.985 C 95.615 242.993, 97.081 243.900, 97.768 245 C 100.132 248.786, 107.796 247.085, 112.877 241.646 C 116.842 237.401, 113.346 234.139, 107.934 237.035 C 105.937 238.104, 105.076 236.689, 107 235.500 C 109.007 234.259, 107.922 233, 104.845 233 C 101.723 233, 101.710 232.978, 103.553 230.941 C 106.245 227.966, 104.412 225.627, 98.898 225 L 94.500 224.500 97.291 222.608 C 99.593 221.048, 100.521 220.916, 102.588 221.858 C 103.966 222.486, 107.098 223, 109.547 223 C 113.733 223, 115.258 224.104, 113 225.500 C 111.344 226.524, 111.874 231.576, 113.823 233.340 C 114.826 234.247, 117.755 235.279, 120.333 235.632 C 124.630 236.221, 125.972 235.805, 136.444 230.634 C 154.765 221.589, 172.686 218.312, 211 217.002 C 237.005 216.113, 236.086 216.258, 264 208.625 C 269.225 207.196, 279.453 205.116, 286.728 204.002 C 300.994 201.818, 303.215 201.115, 309.828 196.691 C 312.845 194.674, 314.967 193.944, 316.828 194.285 C 327.998 196.330, 412.202 216.986, 417.357 218.946 L 420.075 219.979 417.992 222.796 C 416.749 224.478, 415.840 227.351, 415.738 229.922 C 415.494 236.031, 418.479 238.374, 425.739 237.772 C 428.633 237.532, 431 237.700, 431 238.145 C 431 238.590, 432.153 239.709, 433.562 240.633 C 435.928 242.183, 436.382 242.188, 439.489 240.707 C 441.673 239.665, 444.127 239.309, 446.482 239.691 C 451.347 240.480, 454.336 238.710, 458.135 232.790 C 459.852 230.113, 461.444 228.111, 461.673 228.339 C 461.901 228.568, 463.081 230.718, 464.294 233.118 C 467.098 238.664, 470.770 240.881, 474.407 239.224 C 476.383 238.324, 477 237.308, 477 234.956 C 477 233.258, 476.534 230.998, 475.965 229.934 C 474.607 227.397, 475.275 227.491, 480.542 230.577 C 482.961 231.995, 485.404 232.869, 485.970 232.518 C 486.537 232.168, 487 230.171, 487 228.079 L 487 224.276 505.172 223.548 C 515.167 223.147, 524.499 222.381, 525.910 221.844 C 528.949 220.689, 560.608 199.603, 563.500 196.808 C 565.479 194.896, 565.293 194.879, 546 195.215 L 526.500 195.555 511.500 202.169 C 503.250 205.807, 494.481 209.460, 492.012 210.286 C 487.538 211.785, 487.514 211.781, 484.090 208.774 C 480.772 205.861, 480.400 205.776, 473.078 206.258 C 466.005 206.724, 465.034 206.532, 458.503 203.379 C 450.344 199.438, 449.331 199.344, 443.544 201.980 C 439.203 203.957, 439.189 203.957, 433.349 201.930 C 426.574 199.578, 402.926 193.036, 392 190.491 C 387.875 189.530, 384.130 188.409, 383.677 187.999 C 382.947 187.338, 386.978 186.432, 399.189 184.512 C 406.119 183.423, 436.848 183.958, 460.688 185.582 C 473.785 186.475, 487.425 186.939, 491 186.614 C 510.895 184.803, 537.502 171.616, 539.202 162.725 C 539.907 159.038, 537.778 154.752, 532.879 149.999 C 524.788 142.147, 517.053 140.028, 496.500 140.033 C 480.013 140.037, 468.163 141.579, 443 146.992 C 432.825 149.181, 415.275 152.804, 404 155.043 C 392.725 157.282, 372.562 161.564, 359.194 164.557 C 345.826 167.551, 333.223 170, 331.187 170 C 324.580 170, 303.559 163.649, 299.858 160.534 L 296.515 157.721 284.508 158.362 C 271.117 159.078, 274.021 159.655, 225.684 146.676 C 200.149 139.819, 169.471 132.728, 153.651 130.025 C 138.254 127.394, 119.877 127.347, 111.836 129.919  M 84.074 158.118 C 83.032 159.833, 81.883 162.813, 81.521 164.740 L 80.864 168.244 77.942 165.445 C 73.413 161.105, 73.397 163.222, 77.910 169.868 C 82.650 176.847, 82.887 178, 79.585 178 C 77.843 178, 76.147 176.606, 73.500 173 C 71.481 170.250, 69.166 168, 68.356 168 C 66.730 168, 66.869 168.327, 71.228 174.764 C 73.943 178.774, 74.014 179.129, 72.418 180.725 C 70.822 182.321, 70.466 182.128, 66.429 177.475 C 61.929 172.288, 59.062 171.888, 62.821 176.972 C 65.523 180.626, 65.554 181.311, 62.980 180.494 C 61.348 179.976, 60.673 180.539, 59.468 183.422 C 58.648 185.386, 57.644 186.941, 57.238 186.878 C 56.832 186.815, 55.825 186.832, 55 186.917 C 52.835 187.139, 57.977 189.920, 60.633 189.965 C 63.125 190.006, 64.505 193.686, 62.801 195.740 C 61.087 197.805, 63.086 199.078, 66.524 198.111 C 68.334 197.601, 69.354 196.730, 69.128 195.887 C 68.924 195.124, 68.534 193.713, 68.261 192.750 C 67.917 191.531, 68.334 191, 69.633 191.001 C 70.835 191.002, 72.513 192.805, 74.341 196.060 C 77.653 201.956, 80.287 203.312, 85.588 201.848 C 89.263 200.833, 89.438 200.911, 93.564 205.405 C 98.178 210.430, 98.257 210.468, 101.066 208.965 C 103.855 207.472, 103.559 202.874, 100.489 199.990 C 98.466 198.089, 98.095 197.011, 98.578 194.437 C 99.331 190.424, 97.645 187.172, 91.093 180 C 87.052 175.577, 86.061 173.798, 86.034 170.917 C 86.015 168.946, 86.239 167.094, 86.531 166.802 C 86.824 166.510, 89.043 166.982, 91.463 167.853 C 95.607 169.343, 95.982 169.326, 97.931 167.562 C 101.002 164.783, 100.548 162.127, 96.730 160.532 C 94.931 159.780, 92.611 158.228, 91.575 157.083 C 88.907 154.135, 86.276 154.498, 84.074 158.118  M 86.078 185.406 C 85.115 186.566, 85.212 187.393, 86.548 189.433 C 88.197 191.949, 91 192.951, 91 191.024 C 91 190.487, 90.165 188.675, 89.145 186.997 C 87.570 184.409, 87.106 184.168, 86.078 185.406  M 63.500 187 C 63.148 187.569, 64.009 188, 65.500 188 C 66.991 188, 67.852 187.569, 67.500 187 C 67.160 186.450, 66.260 186, 65.500 186 C 64.740 186, 63.840 186.450, 63.500 187  M 79.243 190.665 C 78.324 191.035, 78.558 191.975, 80.116 194.163 C 82.778 197.902, 85.166 196.547, 83.011 192.520 C 81.622 189.924, 81.378 189.804, 79.243 190.665  M 117.995 238.750 C 121.562 244.608, 129.035 253.723, 131.318 255 C 133.707 256.336, 134.300 256.333, 136.750 254.968 C 140.991 252.607, 140.880 248.947, 136.435 244.502 C 130.838 238.905, 127.114 237.008, 121.715 237.004 C 117.418 237, 117.038 237.179, 117.995 238.750"/>
  <g transform="translate(64 8) rotate(14)" fill="#a6a5a1"><ellipse cx="6.4" cy="29" rx="6.4" ry="4.8" transform="rotate(-18 6.4 29)"/><rect x="11.1" y="3" width="2.6" height="26.5" rx="1.3"/><path d="M13.7 3c4.8 1.8 7.6 5.2 6.6 10.6-.4-3.4-2.9-5.6-6.6-6.4z"/></g>
  <g transform="translate(118 44) rotate(-12) scale(.9)" fill="#e08a2e"><ellipse cx="6.4" cy="29" rx="6.4" ry="4.8" transform="rotate(-18 6.4 29)"/><rect x="11.1" y="3" width="2.6" height="26.5" rx="1.3"/><path d="M13.7 3c4.8 1.8 7.6 5.2 6.6 10.6-.4-3.4-2.9-5.6-6.6-6.4z"/></g>
  <g transform="translate(38 96) rotate(-24)" fill="#e5c02e"><ellipse cx="6.4" cy="29" rx="6.4" ry="4.8" transform="rotate(-18 6.4 29)"/><rect x="11.1" y="3" width="2.6" height="26.5" rx="1.3"/><path d="M13.7 3c4.8 1.8 7.6 5.2 6.6 10.6-.4-3.4-2.9-5.6-6.6-6.4z"/></g>
  <g transform="translate(96 118) rotate(20) scale(.85)" fill="#d4514f"><ellipse cx="6.4" cy="29" rx="6.4" ry="4.8" transform="rotate(-18 6.4 29)"/><rect x="11.1" y="3" width="2.6" height="26.5" rx="1.3"/><path d="M13.7 3c4.8 1.8 7.6 5.2 6.6 10.6-.4-3.4-2.9-5.6-6.6-6.4z"/></g>
  <g transform="translate(56 138) rotate(-14) scale(1.2)" fill="#d4514f"><ellipse cx="6.4" cy="29" rx="6.4" ry="4.8" transform="rotate(-18 6.4 29)"/><rect x="11.1" y="3" width="2.6" height="26.5" rx="1.3"/><path d="M13.7 3c4.8 1.8 7.6 5.2 6.6 10.6-.4-3.4-2.9-5.6-6.6-6.4z"/></g>
</svg></svg>